<svg width="42" height="42" viewBox="0 0 42 42" fill="none" xmlns="http://www.w3.org/2000/svg">
<g opacity="0.6">
<path d="M21 3.5C11.3225 3.5 3.5 11.3225 3.5 21C3.5 30.6775 11.3225 38.5 21 38.5C30.6775 38.5 38.5 30.6775 38.5 21C38.5 11.3225 30.6775 3.5 21 3.5ZM21 35C13.2825 35 7 28.7175 7 21C7 13.2825 13.2825 7 21 7C28.7175 7 35 13.2825 35 21C35 28.7175 28.7175 35 21 35ZM27.2825 12.25L21 18.5325L14.7175 12.25L12.25 14.7175L18.5325 21L12.25 27.2825L14.7175 29.75L21 23.4675L27.2825 29.75L29.75 27.2825L23.4675 21L29.75 14.7175L27.2825 12.25Z" fill="#333333"/>
</g>
</svg>
