<svg width="60" height="60" viewBox="0 0 60 60" fill="none" xmlns="http://www.w3.org/2000/svg">
<path d="M51.9082 31.2715C52.8926 29.9707 53.4375 28.3769 53.4375 26.7187C53.4375 24.0879 51.9668 21.5976 49.5996 20.209C48.9902 19.8515 48.2963 19.6634 47.5898 19.664H33.5391L33.8906 12.4629C33.9727 10.7226 33.3574 9.07029 32.1621 7.81053C31.5755 7.1896 30.8678 6.69557 30.0827 6.35896C29.2976 6.02235 28.4519 5.85032 27.5977 5.8535C24.5508 5.8535 21.8555 7.90428 21.0469 10.8398L16.0137 29.0625H15.9961V54.1406H43.6699C44.209 54.1406 44.7363 54.0351 45.2227 53.8242C48.0117 52.6347 49.8105 49.9101 49.8105 46.8867C49.8105 46.1484 49.7051 45.4219 49.4941 44.7187C50.4785 43.4179 51.0234 41.8242 51.0234 40.166C51.0234 39.4277 50.918 38.7011 50.707 37.998C51.6914 36.6972 52.2363 35.1035 52.2363 33.4453C52.2246 32.707 52.1191 31.9746 51.9082 31.2715ZM6.5625 30.9375V52.2656C6.5625 53.3027 7.40039 54.1406 8.4375 54.1406H12.2461V29.0625H8.4375C7.40039 29.0625 6.5625 29.9004 6.5625 30.9375Z" fill="#2F80ED"/>
</svg>
